<mxfile host="65bd71144e">
    <diagram id="NOGx13UhY0g2yGOsdT6_" name="Page-1">
        <mxGraphModel dx="1130" dy="594" grid="1" gridSize="10" guides="1" tooltips="1" connect="1" arrows="1" fold="1" page="1" pageScale="1" pageWidth="827" pageHeight="1169" math="0" shadow="0">
            <root>
                <mxCell id="0"/>
                <mxCell id="1" parent="0"/>
                <mxCell id="HIsiY451bfqSGSt1I973-9" style="edgeStyle=orthogonalEdgeStyle;rounded=0;orthogonalLoop=1;jettySize=auto;html=1;exitX=0.5;exitY=1;exitDx=0;exitDy=0;entryX=0.5;entryY=0;entryDx=0;entryDy=0;" parent="1" source="HIsiY451bfqSGSt1I973-1" target="HIsiY451bfqSGSt1I973-4" edge="1">
                    <mxGeometry relative="1" as="geometry"/>
                </mxCell>
                <mxCell id="HIsiY451bfqSGSt1I973-1" value="&lt;div&gt;Coletor&lt;/div&gt;" style="rounded=0;whiteSpace=wrap;html=1;" parent="1" vertex="1">
                    <mxGeometry x="60" y="110" width="120" height="60" as="geometry"/>
                </mxCell>
                <mxCell id="HIsiY451bfqSGSt1I973-10" style="edgeStyle=orthogonalEdgeStyle;rounded=0;orthogonalLoop=1;jettySize=auto;html=1;exitX=0.5;exitY=1;exitDx=0;exitDy=0;" parent="1" source="HIsiY451bfqSGSt1I973-2" target="HIsiY451bfqSGSt1I973-5" edge="1">
                    <mxGeometry relative="1" as="geometry"/>
                </mxCell>
                <mxCell id="HIsiY451bfqSGSt1I973-2" value="&lt;div&gt;Coletor&lt;/div&gt;" style="rounded=0;whiteSpace=wrap;html=1;" parent="1" vertex="1">
                    <mxGeometry x="340" y="110" width="120" height="60" as="geometry"/>
                </mxCell>
                <mxCell id="HIsiY451bfqSGSt1I973-11" style="edgeStyle=orthogonalEdgeStyle;rounded=0;orthogonalLoop=1;jettySize=auto;html=1;exitX=0.5;exitY=1;exitDx=0;exitDy=0;" parent="1" source="HIsiY451bfqSGSt1I973-3" target="HIsiY451bfqSGSt1I973-6" edge="1">
                    <mxGeometry relative="1" as="geometry"/>
                </mxCell>
                <mxCell id="HIsiY451bfqSGSt1I973-3" value="&lt;div&gt;Coletor&lt;/div&gt;" style="rounded=0;whiteSpace=wrap;html=1;" parent="1" vertex="1">
                    <mxGeometry x="620" y="110" width="120" height="60" as="geometry"/>
                </mxCell>
                <mxCell id="HIsiY451bfqSGSt1I973-4" value="Agregador" style="rounded=0;whiteSpace=wrap;html=1;" parent="1" vertex="1">
                    <mxGeometry x="60" y="270" width="120" height="60" as="geometry"/>
                </mxCell>
                <mxCell id="HIsiY451bfqSGSt1I973-5" value="Agregador" style="rounded=0;whiteSpace=wrap;html=1;" parent="1" vertex="1">
                    <mxGeometry x="340" y="270" width="120" height="60" as="geometry"/>
                </mxCell>
                <mxCell id="HIsiY451bfqSGSt1I973-6" value="Agregador" style="rounded=0;whiteSpace=wrap;html=1;" parent="1" vertex="1">
                    <mxGeometry x="620" y="270" width="120" height="60" as="geometry"/>
                </mxCell>
                <mxCell id="HIsiY451bfqSGSt1I973-7" value="" style="endArrow=classic;startArrow=classic;html=1;rounded=0;exitX=1;exitY=0.5;exitDx=0;exitDy=0;entryX=0;entryY=0.5;entryDx=0;entryDy=0;" parent="1" source="HIsiY451bfqSGSt1I973-4" target="HIsiY451bfqSGSt1I973-5" edge="1">
                    <mxGeometry width="50" height="50" relative="1" as="geometry">
                        <mxPoint x="390" y="360" as="sourcePoint"/>
                        <mxPoint x="440" y="310" as="targetPoint"/>
                        <Array as="points">
                            <mxPoint x="260" y="300"/>
                        </Array>
                    </mxGeometry>
                </mxCell>
                <mxCell id="HIsiY451bfqSGSt1I973-8" value="" style="endArrow=classic;startArrow=classic;html=1;rounded=0;entryX=1;entryY=0.5;entryDx=0;entryDy=0;exitX=0;exitY=0.5;exitDx=0;exitDy=0;" parent="1" source="HIsiY451bfqSGSt1I973-6" target="HIsiY451bfqSGSt1I973-5" edge="1">
                    <mxGeometry width="50" height="50" relative="1" as="geometry">
                        <mxPoint x="390" y="360" as="sourcePoint"/>
                        <mxPoint x="440" y="310" as="targetPoint"/>
                    </mxGeometry>
                </mxCell>
                <mxCell id="HIsiY451bfqSGSt1I973-12" value="&lt;div&gt;IoT:&lt;/div&gt;&lt;div&gt;id&lt;/div&gt;&lt;div&gt;pass&lt;/div&gt;&lt;div&gt;tipo&lt;/div&gt;" style="text;html=1;strokeColor=none;fillColor=none;align=center;verticalAlign=middle;whiteSpace=wrap;rounded=0;" parent="1" vertex="1">
                    <mxGeometry x="90" y="20" width="60" height="30" as="geometry"/>
                </mxCell>
                <mxCell id="HIsiY451bfqSGSt1I973-13" value="IoT" style="text;html=1;strokeColor=none;fillColor=none;align=center;verticalAlign=middle;whiteSpace=wrap;rounded=0;" parent="1" vertex="1">
                    <mxGeometry x="370" y="30" width="60" height="30" as="geometry"/>
                </mxCell>
                <mxCell id="HIsiY451bfqSGSt1I973-14" value="IoT" style="text;html=1;strokeColor=none;fillColor=none;align=center;verticalAlign=middle;whiteSpace=wrap;rounded=0;" parent="1" vertex="1">
                    <mxGeometry x="650" y="30" width="60" height="30" as="geometry"/>
                </mxCell>
                <mxCell id="HIsiY451bfqSGSt1I973-15" value="&lt;div&gt;Consumidor&lt;/div&gt;" style="text;html=1;align=center;verticalAlign=middle;resizable=0;points=[];autosize=1;strokeColor=none;fillColor=none;" parent="1" vertex="1">
                    <mxGeometry x="374" y="520" width="80" height="20" as="geometry"/>
                </mxCell>
                <mxCell id="HIsiY451bfqSGSt1I973-16" value="&lt;div&gt;Publish-Subscribe&lt;/div&gt;" style="rounded=0;whiteSpace=wrap;html=1;" parent="1" vertex="1">
                    <mxGeometry x="60" y="450" width="111" height="20" as="geometry"/>
                </mxCell>
                <mxCell id="HIsiY451bfqSGSt1I973-17" value="&lt;div&gt;Consumidor&lt;/div&gt;" style="text;html=1;align=center;verticalAlign=middle;resizable=0;points=[];autosize=1;strokeColor=none;fillColor=none;" parent="1" vertex="1">
                    <mxGeometry x="240" y="540" width="80" height="20" as="geometry"/>
                </mxCell>
                <mxCell id="HIsiY451bfqSGSt1I973-18" value="&lt;div&gt;Consumidor&lt;/div&gt;" style="text;html=1;align=center;verticalAlign=middle;resizable=0;points=[];autosize=1;strokeColor=none;fillColor=none;" parent="1" vertex="1">
                    <mxGeometry x="520" y="530" width="80" height="20" as="geometry"/>
                </mxCell>
                <mxCell id="HIsiY451bfqSGSt1I973-19" value="&lt;div&gt;Consumidor&lt;/div&gt;" style="text;html=1;align=center;verticalAlign=middle;resizable=0;points=[];autosize=1;strokeColor=none;fillColor=none;" parent="1" vertex="1">
                    <mxGeometry x="120" y="490" width="80" height="20" as="geometry"/>
                </mxCell>
                <mxCell id="HIsiY451bfqSGSt1I973-20" value="&lt;div&gt;Consumidor&lt;/div&gt;" style="text;html=1;align=center;verticalAlign=middle;resizable=0;points=[];autosize=1;strokeColor=none;fillColor=none;" parent="1" vertex="1">
                    <mxGeometry x="620" y="490" width="80" height="20" as="geometry"/>
                </mxCell>
                <mxCell id="HIsiY451bfqSGSt1I973-21" value="&lt;div&gt;Consumidor&lt;/div&gt;" style="text;html=1;align=center;verticalAlign=middle;resizable=0;points=[];autosize=1;strokeColor=none;fillColor=none;" parent="1" vertex="1">
                    <mxGeometry x="660" y="565" width="80" height="20" as="geometry"/>
                </mxCell>
                <mxCell id="HIsiY451bfqSGSt1I973-22" value="&lt;div&gt;Consumidor&lt;/div&gt;" style="text;html=1;align=center;verticalAlign=middle;resizable=0;points=[];autosize=1;strokeColor=none;fillColor=none;" parent="1" vertex="1">
                    <mxGeometry x="460" y="490" width="80" height="20" as="geometry"/>
                </mxCell>
                <mxCell id="HIsiY451bfqSGSt1I973-23" value="" style="shape=cylinder3;whiteSpace=wrap;html=1;boundedLbl=1;backgroundOutline=1;size=15;" parent="1" vertex="1">
                    <mxGeometry x="100" y="370" width="40" height="60" as="geometry"/>
                </mxCell>
                <mxCell id="HIsiY451bfqSGSt1I973-24" value="" style="shape=cylinder3;whiteSpace=wrap;html=1;boundedLbl=1;backgroundOutline=1;size=15;" parent="1" vertex="1">
                    <mxGeometry x="380" y="370" width="40" height="60" as="geometry"/>
                </mxCell>
                <mxCell id="HIsiY451bfqSGSt1I973-25" value="" style="shape=cylinder3;whiteSpace=wrap;html=1;boundedLbl=1;backgroundOutline=1;size=15;" parent="1" vertex="1">
                    <mxGeometry x="660" y="370" width="40" height="60" as="geometry"/>
                </mxCell>
                <mxCell id="HIsiY451bfqSGSt1I973-26" value="" style="endArrow=classic;html=1;rounded=0;entryX=0.5;entryY=0;entryDx=0;entryDy=0;exitX=0.5;exitY=1;exitDx=0;exitDy=0;entryPerimeter=0;" parent="1" source="HIsiY451bfqSGSt1I973-4" target="HIsiY451bfqSGSt1I973-23" edge="1">
                    <mxGeometry width="50" height="50" relative="1" as="geometry">
                        <mxPoint x="390" y="310" as="sourcePoint"/>
                        <mxPoint x="440" y="260" as="targetPoint"/>
                    </mxGeometry>
                </mxCell>
                <mxCell id="HIsiY451bfqSGSt1I973-27" value="" style="endArrow=classic;html=1;rounded=0;entryX=0.5;entryY=0;entryDx=0;entryDy=0;exitX=0.5;exitY=1;exitDx=0;exitDy=0;entryPerimeter=0;" parent="1" source="HIsiY451bfqSGSt1I973-5" target="HIsiY451bfqSGSt1I973-24" edge="1">
                    <mxGeometry width="50" height="50" relative="1" as="geometry">
                        <mxPoint x="130" y="340" as="sourcePoint"/>
                        <mxPoint x="130" y="380" as="targetPoint"/>
                        <Array as="points"/>
                    </mxGeometry>
                </mxCell>
                <mxCell id="HIsiY451bfqSGSt1I973-28" value="" style="endArrow=classic;html=1;rounded=0;entryX=0.5;entryY=0;entryDx=0;entryDy=0;exitX=0.5;exitY=1;exitDx=0;exitDy=0;entryPerimeter=0;" parent="1" edge="1">
                    <mxGeometry width="50" height="50" relative="1" as="geometry">
                        <mxPoint x="679.5" y="330" as="sourcePoint"/>
                        <mxPoint x="679.5" y="370" as="targetPoint"/>
                    </mxGeometry>
                </mxCell>
                <mxCell id="HIsiY451bfqSGSt1I973-29" value="&lt;div&gt;id&lt;/div&gt;&lt;div&gt;tipo&lt;br&gt;&lt;/div&gt;&lt;div&gt;online&lt;/div&gt;&lt;div&gt;ativo&lt;/div&gt;&lt;div&gt;eventos&lt;br&gt;&lt;/div&gt;&lt;div&gt;&lt;br&gt;&lt;/div&gt;" style="text;html=1;strokeColor=none;fillColor=none;align=center;verticalAlign=middle;whiteSpace=wrap;rounded=0;" parent="1" vertex="1">
                    <mxGeometry x="150" y="380" width="60" height="30" as="geometry"/>
                </mxCell>
                <mxCell id="HIsiY451bfqSGSt1I973-30" style="edgeStyle=orthogonalEdgeStyle;rounded=0;orthogonalLoop=1;jettySize=auto;html=1;exitX=0.5;exitY=1;exitDx=0;exitDy=0;" parent="1" source="HIsiY451bfqSGSt1I973-29" target="HIsiY451bfqSGSt1I973-29" edge="1">
                    <mxGeometry relative="1" as="geometry"/>
                </mxCell>
                <mxCell id="HIsiY451bfqSGSt1I973-32" value="&lt;div&gt;id&lt;/div&gt;&lt;div&gt;tipo&lt;br&gt;&lt;/div&gt;&lt;div&gt;online&lt;/div&gt;&lt;div&gt;ativo&lt;/div&gt;&lt;div&gt;eventos&lt;br&gt;&lt;/div&gt;&lt;div&gt;&lt;br&gt;&lt;/div&gt;" style="text;html=1;strokeColor=none;fillColor=none;align=center;verticalAlign=middle;whiteSpace=wrap;rounded=0;" parent="1" vertex="1">
                    <mxGeometry x="430" y="380" width="60" height="30" as="geometry"/>
                </mxCell>
                <mxCell id="HIsiY451bfqSGSt1I973-33" value="&lt;div&gt;id&lt;/div&gt;&lt;div&gt;tipo&lt;br&gt;&lt;/div&gt;&lt;div&gt;online&lt;/div&gt;&lt;div&gt;ativo&lt;/div&gt;&lt;div&gt;eventos&lt;br&gt;&lt;/div&gt;&lt;div&gt;&lt;br&gt;&lt;/div&gt;" style="text;html=1;strokeColor=none;fillColor=none;align=center;verticalAlign=middle;whiteSpace=wrap;rounded=0;" parent="1" vertex="1">
                    <mxGeometry x="710" y="380" width="60" height="30" as="geometry"/>
                </mxCell>
                <mxCell id="HIsiY451bfqSGSt1I973-34" value="&lt;div&gt;Publish-Subscribe&lt;/div&gt;" style="rounded=0;whiteSpace=wrap;html=1;" parent="1" vertex="1">
                    <mxGeometry x="344.5" y="450" width="111" height="20" as="geometry"/>
                </mxCell>
                <mxCell id="HIsiY451bfqSGSt1I973-35" value="&lt;div&gt;Publish-Subscribe&lt;/div&gt;" style="rounded=0;whiteSpace=wrap;html=1;" parent="1" vertex="1">
                    <mxGeometry x="624.5" y="450" width="111" height="20" as="geometry"/>
                </mxCell>
                <mxCell id="HIsiY451bfqSGSt1I973-36" value="&lt;div&gt;Push-Pull&lt;/div&gt;" style="text;html=1;strokeColor=none;fillColor=none;align=center;verticalAlign=middle;whiteSpace=wrap;rounded=0;" parent="1" vertex="1">
                    <mxGeometry x="130" y="210" width="60" height="30" as="geometry"/>
                </mxCell>
                <mxCell id="2" value="" style="sketch=0;html=1;aspect=fixed;strokeColor=none;shadow=0;align=center;verticalAlign=top;fillColor=#2D9C5E;shape=mxgraph.gcp2.check" parent="1" vertex="1">
                    <mxGeometry width="37.5" height="30" as="geometry"/>
                </mxCell>
                <mxCell id="3" style="edgeStyle=orthogonalEdgeStyle;rounded=0;orthogonalLoop=1;jettySize=auto;html=1;entryX=0.5;entryY=0;entryDx=0;entryDy=0;" parent="1" target="HIsiY451bfqSGSt1I973-1" edge="1">
                    <mxGeometry relative="1" as="geometry">
                        <mxPoint x="120" y="70" as="sourcePoint"/>
                        <mxPoint x="130" y="280" as="targetPoint"/>
                    </mxGeometry>
                </mxCell>
                <mxCell id="4" value="TCP" style="text;html=1;align=center;verticalAlign=middle;resizable=0;points=[];autosize=1;strokeColor=none;fillColor=none;" parent="1" vertex="1">
                    <mxGeometry x="131" y="75" width="40" height="20" as="geometry"/>
                </mxCell>
            </root>
        </mxGraphModel>
    </diagram>
</mxfile>